<?xml version="1.0" encoding="UTF-8" standalone="no"?><!DOCTYPE svg PUBLIC "-//W3C//DTD SVG 1.1//EN" "http://www.w3.org/Graphics/SVG/1.1/DTD/svg11.dtd"><svg width="100%" height="100%" viewBox="0 0 21 21" version="1.1" xmlns="http://www.w3.org/2000/svg" xmlns:xlink="http://www.w3.org/1999/xlink" xml:space="preserve" xmlns:serif="http://www.serif.com/" style="fill-rule:evenodd;clip-rule:evenodd;stroke-linejoin:round;stroke-miterlimit:2;"><rect id="Logo" x="0.676" y="0.66" width="20" height="20" style="fill:none;"/><clipPath id="_clip1"><rect id="Logo1" serif:id="Logo" x="0.676" y="0.66" width="20" height="20"/></clipPath><g clip-path="url(#_clip1)"><path d="M14.663,1.249c-3.129,-1.471 -6.695,-0.482 -7.96,2.208c-1.264,2.69 0.25,6.067 3.379,7.538c-1.573,-1.532 -2.176,-4.209 -1.112,-6.472c1.065,-2.264 3.51,-3.507 5.693,-3.274Z" style="fill:#ff00bf;"/><ellipse cx="10.926" cy="18.16" rx="4.75" ry="1.936" style="fill:#ff00bf;"/><path d="M12.02,0.644c4.778,-0 8.656,3.14 8.656,7.008c0,3.868 -2.532,5.595 -9,8.508c1.434,-1.635 2.941,-5.712 2.941,-8.508c-0,-2.796 -1.164,-5.373 -2.597,-7.008Z" style="fill:#ff00bf;"/></g></svg>