<?xml version="1.0" encoding="UTF-8" standalone="no"?><!DOCTYPE svg PUBLIC "-//W3C//DTD SVG 1.1//EN" "http://www.w3.org/Graphics/SVG/1.1/DTD/svg11.dtd"><svg width="100%" height="100%" viewBox="0 0 23 22" version="1.1" xmlns="http://www.w3.org/2000/svg" xmlns:xlink="http://www.w3.org/1999/xlink" xml:space="preserve" xmlns:serif="http://www.serif.com/" style="fill-rule:evenodd;clip-rule:evenodd;stroke-linejoin:round;stroke-miterlimit:2;"><rect id="record" x="0.536" y="0.324" width="21.651" height="21.628" style="fill:none;"/><g id="record1" serif:id="record"><ellipse cx="11.369" cy="11.134" rx="10.25" ry="10.522" style="fill:#f00;"/><clipPath id="_clip1"><ellipse cx="11.369" cy="11.134" rx="10.25" ry="10.522"/></clipPath><g clip-path="url(#_clip1)"><path d="M10.847,14.496c0.059,-0.137 0.128,-0.31 0.178,-0.474c0.291,-0.952 0.582,-2.439 0.876,-3.926c0.411,-2.084 0.839,-4.163 1.242,-4.913c0.236,-0.437 0.551,-0.58 0.783,-0.58c0.434,0 0.875,0.325 1.164,1.046c0.417,1.044 0.641,3.089 0.828,5.134c0.152,1.669 0.285,3.335 0.512,4.397c0.034,0.158 0.086,0.323 0.134,0.461c0.033,-0.061 0.066,-0.126 0.091,-0.186c0.183,-0.449 0.347,-1.046 0.538,-1.64c0.262,-0.81 0.581,-1.611 1.022,-2.128c0.378,-0.443 0.841,-0.703 1.409,-0.703l2.355,0c0.004,0 0.009,0 0.014,0c0.024,0.001 0.048,0.001 0.071,0.003c1.031,0.056 0.536,1.147 -0.067,1.152c-0.001,-0 -0.004,-0 -0.004,-0l-2.369,-0c-0.398,-0 -0.637,0.343 -0.853,0.75c-0.311,0.583 -0.526,1.336 -0.734,2.005c-0.232,0.748 -0.473,1.402 -0.756,1.738c-0.225,0.266 -0.485,0.395 -0.763,0.404c-0.334,0.011 -0.711,-0.205 -0.949,-0.79c-0.282,-0.691 -0.465,-2.091 -0.617,-3.681c-0.214,-2.232 -0.381,-4.862 -0.818,-6.238c-0.036,-0.116 -0.074,-0.221 -0.115,-0.314c-0.049,0.119 -0.101,0.256 -0.141,0.386c-0.29,0.952 -0.582,2.439 -0.875,3.926c-0.411,2.084 -0.839,4.163 -1.243,4.913c-0.235,0.437 -0.55,0.58 -0.783,0.58c-0.38,0 -0.752,-0.214 -1.058,-0.67c-0.441,-0.657 -0.792,-1.94 -1.096,-3.229c-0.239,-1.009 -0.456,-2.019 -0.702,-2.665c-0.009,-0.024 -0.02,-0.049 -0.031,-0.074c-0.054,0.256 -0.089,0.558 -0.139,0.859c-0.181,1.096 -0.598,2.1 -1.82,2.1l-4.498,-0c-0.31,-0 -2.562,-0.259 -2.562,-0.577c0,-0.319 0.252,-0.578 0.562,-0.578l6.498,0c0.355,0 0.491,-0.262 0.583,-0.555c0.103,-0.33 0.148,-0.71 0.2,-1.054c0.071,-0.465 0.168,-0.878 0.329,-1.139c0.196,-0.315 0.468,-0.489 0.844,-0.489c0.277,0 0.58,0.152 0.822,0.543c0.274,0.442 0.525,1.326 0.765,2.332c0.278,1.164 0.557,2.504 0.925,3.388c0.078,0.189 0.159,0.355 0.248,0.486Z" style="fill:#400;"/><path d="M23.036,11.824l-3.5,-0.5l-1.5,1.5l-1.5,3.5l-1.5,-5.186l-1,-5.814l-1,1l-1.674,8.5l-0.826,0.5l-1.5,-3l-1,-3.5l-0.5,0.5l-0.5,2l-7,-0l6.5,13.5l17,-4l-0.5,-9Z" style="fill:#400;"/></g></g></svg>